<svg width="24" height="24" viewBox="0 0 24 24" fill="none" xmlns="http://www.w3.org/2000/svg">
<path d="M23.9206 18.7023C22.8314 15.9602 21.7534 13.214 20.6779 10.467C20.6194 10.3178 20.5875 10.1495 20.5858 9.98975C20.5771 9.10422 20.6024 8.21788 20.5738 7.33317C20.556 6.78782 20.5145 6.23396 20.395 5.70321C19.7676 2.91608 17.2905 0.776863 14.3881 0.532776C13.9018 0.491824 13.4113 0.497095 12.9209 0.507637V0H11.079V0.473984C10.8114 0.471957 10.5442 0.474795 10.2782 0.493446C9.66581 0.536425 9.04051 0.581026 8.45173 0.736723C5.60119 1.49047 3.57801 3.9354 3.4191 6.81945C3.36142 7.86675 3.40208 8.91892 3.38756 9.96907C3.38507 10.1365 3.35478 10.3133 3.29379 10.4694C2.23656 13.1726 1.1814 15.877 0.0988593 18.5713C-0.0766544 19.0084 -0.011926 19.3567 0.241179 19.7103C0.342006 19.851 0.449057 19.9896 0.566481 20.1169C1.10879 20.7053 1.75981 21.161 2.45273 21.5596C4.77715 22.8956 7.30529 23.6222 9.97202 23.8938C13.2707 24.2295 16.4602 23.7673 19.5278 22.5339C20.7929 22.025 22.0007 21.4067 23.0131 20.4912C23.3484 20.1879 23.616 19.8068 23.8816 19.4382C24.0384 19.2205 24.0268 18.9695 23.9206 18.7019V18.7023Z" fill="black"/>
<path d="M15.3963 12.3078C14.8677 12.3078 14.3387 12.3106 13.8101 12.3061C13.6669 12.3049 13.5217 12.2924 13.3811 12.2656C12.9649 12.1865 12.8632 12.0596 12.8628 11.6469C12.8628 11.3334 12.8537 11.02 12.8649 10.7074C12.8902 9.9869 13.2138 9.45493 13.9097 9.16341C15.0154 8.69997 16.5818 9.01014 17.3963 9.87864C17.8187 10.3295 18.0004 10.8907 18.0075 11.4936C18.0129 11.9562 17.6282 12.2972 17.1266 12.3049C16.5498 12.3138 15.9731 12.3069 15.3963 12.3074V12.3078Z" fill="white"/>
<path d="M13.2852 15.6455H10.7226C10.7226 15.1642 10.6811 14.6931 10.7326 14.2321C10.8073 13.5594 11.3832 13.1252 12.0728 13.1527C12.7114 13.1783 13.2416 13.6798 13.2802 14.3314C13.3055 14.7592 13.2852 15.1894 13.2852 15.6455Z" fill="white"/>
<path d="M7.48745 19.8566C7.48952 20.2049 7.20696 20.4855 6.85095 20.4883C6.49619 20.4912 6.20533 20.2118 6.20242 19.866C6.19952 19.5205 6.48706 19.2355 6.84099 19.2322C7.19326 19.229 7.48537 19.5112 7.48745 19.8562V19.8566Z" fill="white"/>
<path d="M17.7984 19.8948C17.7797 20.2406 17.4747 20.5074 17.1212 20.4875C16.7631 20.4673 16.4992 20.1802 16.5146 19.8279C16.5295 19.4861 16.842 19.2116 17.1905 19.2339C17.549 19.257 17.817 19.5481 17.7984 19.8948Z" fill="white"/>
<path d="M11.5334 19.8546H10.2807V16.5217H11.5334V19.8546Z" fill="white"/>
<path d="M13.6952 16.5193V19.8501H12.4305V16.5193H13.6952Z" fill="white"/>
<path d="M15.4175 19.8664H14.5835V17.3695C14.8681 17.6477 15.1258 17.8971 15.3793 18.1501C15.4038 18.1744 15.4158 18.2206 15.4158 18.2571C15.4183 18.7801 15.4175 19.3032 15.4175 19.8664Z" fill="white"/>
<path d="M8.58243 19.8396H9.41644V17.3428C9.1318 17.6209 8.87413 17.8703 8.62061 18.1233C8.59613 18.1476 8.58409 18.1938 8.58409 18.2303C8.5816 18.7534 8.58243 19.2764 8.58243 19.8396Z" fill="white"/>
<path d="M8.75878 12.3078C9.28739 12.3078 9.81642 12.3106 10.345 12.3061C10.4882 12.3049 10.6334 12.2924 10.7741 12.2656C11.1902 12.1865 11.2919 12.0596 11.2923 11.6469C11.2923 11.3334 11.3014 11.02 11.2902 10.7074C11.2649 9.9869 10.9413 9.45493 10.2455 9.16341C9.13968 8.69997 7.57333 9.01014 6.75883 9.87864C6.33644 10.3295 6.1547 10.8907 6.14765 11.4936C6.14225 11.9562 6.52689 12.2972 7.02854 12.3049C7.60528 12.3138 8.18203 12.3069 8.75878 12.3074V12.3078Z" fill="white"/>
<path d="M22.7331 18.2822C22.7231 18.1987 21.0248 13.9227 20.1941 11.8715C19.8381 10.9925 19.4813 10.1098 19.0531 9.26316C18.6369 8.44088 18.0149 7.76377 17.1307 7.39236C15.5519 6.72943 14.0296 6.89811 12.596 7.79823C12.3861 7.93 12.1927 7.99609 12.0002 7.99569V8.85121C12.3433 8.85121 12.6881 8.7393 13.0416 8.52117C13.4097 8.29451 13.818 8.10435 14.2346 7.98474C15.4287 7.64132 17.1038 7.81445 18.0457 9.25789C18.3535 9.72944 18.617 10.2391 18.8282 10.7593C19.8423 13.261 20.8319 15.7724 21.8306 18.2802C21.8684 18.3747 21.9036 18.4728 21.9601 18.5567C22.0791 18.7331 22.2505 18.8012 22.4592 18.725C22.6658 18.6496 22.7584 18.4935 22.7327 18.2818L22.7331 18.2822Z" fill="white"/>
<path d="M6.8692 7.39277C5.985 7.76377 5.36261 8.44129 4.94685 9.26357C4.51865 10.1098 4.16181 10.9925 3.80581 11.8719C2.97554 13.9231 1.27725 18.1991 1.26688 18.2826C1.24115 18.4947 1.33326 18.6508 1.54031 18.7258C1.74943 18.802 1.92038 18.7339 2.03947 18.5575C2.0959 18.474 2.13158 18.3755 2.16892 18.281C3.16807 15.7732 4.15725 13.2618 5.17133 10.7601C5.38211 10.2399 5.646 9.73025 5.95388 9.2587C6.89618 7.81526 8.57123 7.64213 9.76497 7.98555C10.1816 8.10517 10.5898 8.29533 10.9579 8.52198C11.3114 8.73971 11.6562 8.85162 11.9993 8.85202V7.9965C11.8068 7.9965 11.6135 7.93122 11.4035 7.79904C9.96995 6.89851 8.44758 6.73025 6.86879 7.39318L6.8692 7.39277Z" fill="white"/>
</svg>
